<svg width="19" height="30" viewBox="0 0 19 30" fill="none" xmlns="http://www.w3.org/2000/svg">
<g filter="url(#filter0_i_1_80)">
<path d="M14 3C14 1.34315 15.3431 0 17 0H19V15H14V3Z" fill="#171717"/>
</g>
<g filter="url(#filter1_i_1_80)">
<path d="M16 5C16 3.34315 17.3431 2 19 2V21H16V5Z" fill="#3F3F3F"/>
</g>
<g filter="url(#filter2_ii_1_80)">
<path d="M19 21.5C19 29 17.6304 30 9.5 30C1.36957 30 0 29 0 21.5C0 14 6.91304 7 9.5 7C12.087 7 19 14 19 21.5Z" fill="#E3E3E3"/>
</g>
<path d="M9.63736 9.96075L11.8588 9.32605C12.2844 9.20447 12.3538 8.63073 11.9695 8.41116L9.74807 7.14175C9.59435 7.05392 9.40565 7.05392 9.25193 7.14175L7.03046 8.41116C6.64622 8.63073 6.71564 9.20447 7.14117 9.32605L9.36264 9.96075C9.45242 9.9864 9.54758 9.9864 9.63736 9.96075Z" fill="#4ED4FF" stroke="#3794B3"/>
<defs>
<filter id="filter0_i_1_80" x="13" y="0" width="6" height="15" filterUnits="userSpaceOnUse" color-interpolation-filters="sRGB">
<feFlood flood-opacity="0" result="BackgroundImageFix"/>
<feBlend mode="normal" in="SourceGraphic" in2="BackgroundImageFix" result="shape"/>
<feColorMatrix in="SourceAlpha" type="matrix" values="0 0 0 0 0 0 0 0 0 0 0 0 0 0 0 0 0 0 127 0" result="hardAlpha"/>
<feOffset dx="-1"/>
<feGaussianBlur stdDeviation="0.5"/>
<feComposite in2="hardAlpha" operator="arithmetic" k2="-1" k3="1"/>
<feColorMatrix type="matrix" values="0 0 0 0 1 0 0 0 0 1 0 0 0 0 1 0 0 0 0.35 0"/>
<feBlend mode="normal" in2="shape" result="effect1_innerShadow_1_80"/>
</filter>
<filter id="filter1_i_1_80" x="15" y="2" width="4" height="19" filterUnits="userSpaceOnUse" color-interpolation-filters="sRGB">
<feFlood flood-opacity="0" result="BackgroundImageFix"/>
<feBlend mode="normal" in="SourceGraphic" in2="BackgroundImageFix" result="shape"/>
<feColorMatrix in="SourceAlpha" type="matrix" values="0 0 0 0 0 0 0 0 0 0 0 0 0 0 0 0 0 0 127 0" result="hardAlpha"/>
<feOffset dx="-1"/>
<feGaussianBlur stdDeviation="0.5"/>
<feComposite in2="hardAlpha" operator="arithmetic" k2="-1" k3="1"/>
<feColorMatrix type="matrix" values="0 0 0 0 1 0 0 0 0 1 0 0 0 0 1 0 0 0 0.35 0"/>
<feBlend mode="normal" in2="shape" result="effect1_innerShadow_1_80"/>
</filter>
<filter id="filter2_ii_1_80" x="-2" y="3" width="21" height="29" filterUnits="userSpaceOnUse" color-interpolation-filters="sRGB">
<feFlood flood-opacity="0" result="BackgroundImageFix"/>
<feBlend mode="normal" in="SourceGraphic" in2="BackgroundImageFix" result="shape"/>
<feColorMatrix in="SourceAlpha" type="matrix" values="0 0 0 0 0 0 0 0 0 0 0 0 0 0 0 0 0 0 127 0" result="hardAlpha"/>
<feOffset dy="-4"/>
<feGaussianBlur stdDeviation="2"/>
<feComposite in2="hardAlpha" operator="arithmetic" k2="-1" k3="1"/>
<feColorMatrix type="matrix" values="0 0 0 0 0 0 0 0 0 0 0 0 0 0 0 0 0 0 0.35 0"/>
<feBlend mode="normal" in2="shape" result="effect1_innerShadow_1_80"/>
<feColorMatrix in="SourceAlpha" type="matrix" values="0 0 0 0 0 0 0 0 0 0 0 0 0 0 0 0 0 0 127 0" result="hardAlpha"/>
<feOffset dx="-2" dy="2"/>
<feGaussianBlur stdDeviation="1.5"/>
<feComposite in2="hardAlpha" operator="arithmetic" k2="-1" k3="1"/>
<feColorMatrix type="matrix" values="0 0 0 0 1 0 0 0 0 1 0 0 0 0 1 0 0 0 0.81 0"/>
<feBlend mode="normal" in2="effect1_innerShadow_1_80" result="effect2_innerShadow_1_80"/>
</filter>
</defs>
</svg>
